<svg xmlns="http://www.w3.org/2000/svg" xmlns:xlink="http://www.w3.org/1999/xlink" aria-hidden="true" focusable="false" width="1em" height="1em" style="-ms-transform: rotate(360deg); -webkit-transform: rotate(360deg); transform: rotate(360deg);" preserveAspectRatio="xMidYMid meet" viewBox="0 0 24 24"><path d="M8 5a3 3 0 110 6 3 3 0 010-6zm8 0a3 3 0 110 6 3 3 0 010-6zm-8 8c3.866 0 7 1.343 7 3v3H1v-3c0-1.657 3.134-3 7-3zm8 0c3.866 0 7 1.343 7 3v3h-6v-3c0-1.117-.66-2.15-1.775-2.982L16 13z" fill="#000"/></svg>